<?xml version="1.0" standalone="no"?>
 <!DOCTYPE svg PUBLIC "-//W3C//DTD SVG 1.1//EN" 
 "http://www.w3.org/Graphics/SVG/1.1/DTD/svg11.dtd"> 
<svg xmlns="http://www.w3.org/2000/svg" version="1.1" 
    width="27.94cm" height="21.59cm" viewBox="0 0 109999 84999 ">
<title>SVG Picture created as RPLCD-i2c.sch.svg date 2015/09/25 12:07:14 </title>
  <desc>Picture generated by Eeschema-SVG </desc>
<g style="fill:#000000; fill-opacity:1;stroke:#000000; stroke-opacity:1;
stroke-linecap:round; stroke-linejoin:round; "
 transform="translate(0 0) scale(1 1)">
</g>
<g style="fill:#000000; fill-opacity:0.0; 
stroke:#000000; stroke-width:0; stroke-opacity:1; 
stroke-linecap:round; stroke-linejoin:round;">
</g>
<g style="fill:#840000; fill-opacity:0.0; 
stroke:#840000; stroke-width:0; stroke-opacity:1; 
stroke-linecap:round; stroke-linejoin:round;">
</g>
<g style="fill:#FFFFC1; fill-opacity:0.0; 
stroke:#FFFFC1; stroke-width:0; stroke-opacity:1; 
stroke-linecap:round; stroke-linejoin:round;">
</g>
<g style="fill:#FFFFC1; fill-opacity:0.6; 
stroke:#FFFFC1; stroke-width:0; stroke-opacity:1; 
stroke-linecap:round; stroke-linejoin:round;">
<rect x="35000" y="23000" width="11000" height="7000" rx="0" />
</g>
<g style="fill:#840000; fill-opacity:0.6; 
stroke:#840000; stroke-width:0; stroke-opacity:1; 
stroke-linecap:round; stroke-linejoin:round;">
</g>
<g style="fill:#840000; fill-opacity:0.0; 
stroke:#840000; stroke-width:100; stroke-opacity:1; 
stroke-linecap:round; stroke-linejoin:round;">
<rect x="35000" y="23000" width="11000" height="7000" rx="0" />
</g>
<g style="fill:#840000; fill-opacity:0.0; 
stroke:#840000; stroke-width:60; stroke-opacity:1; 
stroke-linecap:round; stroke-linejoin:round;">
<path d="M39500 30000
L39500 31500
" />
</g>
<g style="fill:#008484; fill-opacity:0.0; 
stroke:#008484; stroke-width:60; stroke-opacity:1; 
stroke-linecap:round; stroke-linejoin:round;">
<path d="M39580 29500
L39580 29270
" />
<path d="M39730 29550
L39230 29390
L39730 29220
" />
<path d="M39230 28960
L39230 28910
L39250 28860
L39270 28840
L39320 28810
L39420 28790
L39540 28790
L39630 28810
L39680 28840
L39700 28860
L39730 28910
L39730 28960
L39700 29000
L39680 29030
L39630 29050
L39540 29070
L39420 29070
L39320 29050
L39270 29030
L39250 29000
L39230 28960
" />
</g>
<g style="fill:#840000; fill-opacity:0.0; 
stroke:#840000; stroke-width:60; stroke-opacity:1; 
stroke-linecap:round; stroke-linejoin:round;">
<path d="M39380 30610
L39380 30890
" />
<path d="M39380 30750
L38880 30750
L38950 30800
L39000 30850
L39020 30890
" />
<path d="M40500 30000
L40500 31500
" />
</g>
<g style="fill:#008484; fill-opacity:0.0; 
stroke:#008484; stroke-width:60; stroke-opacity:1; 
stroke-linecap:round; stroke-linejoin:round;">
<path d="M40580 29500
L40580 29270
" />
<path d="M40730 29550
L40230 29390
L40730 29220
" />
<path d="M40730 28790
L40730 29070
" />
<path d="M40730 28930
L40230 28930
L40300 28980
L40350 29030
L40370 29070
" />
</g>
<g style="fill:#840000; fill-opacity:0.0; 
stroke:#840000; stroke-width:60; stroke-opacity:1; 
stroke-linecap:round; stroke-linejoin:round;">
<path d="M39920 30890
L39900 30870
L39880 30820
L39880 30700
L39900 30660
L39920 30630
L39970 30610
L40020 30610
L40090 30630
L40380 30920
L40380 30610
" />
<path d="M41500 30000
L41500 31500
" />
</g>
<g style="fill:#008484; fill-opacity:0.0; 
stroke:#008484; stroke-width:60; stroke-opacity:1; 
stroke-linecap:round; stroke-linejoin:round;">
<path d="M41580 29500
L41580 29270
" />
<path d="M41730 29550
L41230 29390
L41730 29220
" />
<path d="M41270 29070
L41250 29050
L41230 29000
L41230 28880
L41250 28840
L41270 28810
L41320 28790
L41370 28790
L41440 28810
L41730 29100
L41730 28790
" />
</g>
<g style="fill:#840000; fill-opacity:0.0; 
stroke:#840000; stroke-width:60; stroke-opacity:1; 
stroke-linecap:round; stroke-linejoin:round;">
<path d="M40880 30920
L40880 30610
L41070 30780
L41070 30700
L41090 30660
L41110 30630
L41160 30610
L41280 30610
L41330 30630
L41350 30660
L41380 30700
L41380 30850
L41350 30890
L41330 30920
" />
<path d="M36500 23000
L36500 21500
" />
</g>
<g style="fill:#008484; fill-opacity:0.0; 
stroke:#008484; stroke-width:60; stroke-opacity:1; 
stroke-linecap:round; stroke-linejoin:round;">
<path d="M36730 24260
L36230 24260
L36230 24070
L36250 24020
L36270 24000
L36320 23980
L36390 23980
L36440 24000
L36460 24020
L36490 24070
L36490 24260
" />
<path d="M36230 23670
L36230 23620
L36250 23570
L36270 23550
L36320 23520
L36420 23500
L36540 23500
L36630 23520
L36680 23550
L36700 23570
L36730 23620
L36730 23670
L36700 23710
L36680 23740
L36630 23760
L36540 23780
L36420 23780
L36320 23760
L36270 23740
L36250 23710
L36230 23670
" />
</g>
<g style="fill:#840000; fill-opacity:0.0; 
stroke:#840000; stroke-width:60; stroke-opacity:1; 
stroke-linecap:round; stroke-linejoin:round;">
<path d="M36040 22160
L36380 22160
" />
<path d="M35850 22280
L36210 22390
L36210 22090
" />
<path d="M37500 23000
L37500 21500
" />
</g>
<g style="fill:#008484; fill-opacity:0.0; 
stroke:#008484; stroke-width:60; stroke-opacity:1; 
stroke-linecap:round; stroke-linejoin:round;">
<path d="M37730 24260
L37230 24260
L37230 24070
L37250 24020
L37270 24000
L37320 23980
L37390 23980
L37440 24000
L37460 24020
L37490 24070
L37490 24260
" />
<path d="M37730 23500
L37730 23780
" />
<path d="M37730 23640
L37230 23640
L37300 23690
L37350 23740
L37370 23780
" />
</g>
<g style="fill:#840000; fill-opacity:0.0; 
stroke:#840000; stroke-width:60; stroke-opacity:1; 
stroke-linecap:round; stroke-linejoin:round;">
<path d="M36880 22130
L36880 22370
L37110 22390
L37090 22370
L37070 22320
L37070 22200
L37090 22160
L37110 22130
L37160 22110
L37280 22110
L37330 22130
L37350 22160
L37380 22200
L37380 22320
L37350 22370
L37330 22390
" />
<path d="M38500 23000
L38500 21500
" />
</g>
<g style="fill:#008484; fill-opacity:0.0; 
stroke:#008484; stroke-width:60; stroke-opacity:1; 
stroke-linecap:round; stroke-linejoin:round;">
<path d="M38730 24260
L38230 24260
L38230 24070
L38250 24020
L38270 24000
L38320 23980
L38390 23980
L38440 24000
L38460 24020
L38490 24070
L38490 24260
" />
<path d="M38270 23780
L38250 23760
L38230 23710
L38230 23590
L38250 23550
L38270 23520
L38320 23500
L38370 23500
L38440 23520
L38730 23810
L38730 23500
" />
</g>
<g style="fill:#840000; fill-opacity:0.0; 
stroke:#840000; stroke-width:60; stroke-opacity:1; 
stroke-linecap:round; stroke-linejoin:round;">
<path d="M37880 22160
L37880 22250
L37900 22300
L37920 22320
L38000 22370
L38090 22390
L38280 22390
L38330 22370
L38350 22350
L38380 22300
L38380 22200
L38350 22160
L38330 22130
L38280 22110
L38160 22110
L38110 22130
L38090 22160
L38070 22200
L38070 22300
L38090 22350
L38110 22370
L38160 22390
" />
<path d="M39500 23000
L39500 21500
" />
</g>
<g style="fill:#008484; fill-opacity:0.0; 
stroke:#008484; stroke-width:60; stroke-opacity:1; 
stroke-linecap:round; stroke-linejoin:round;">
<path d="M39730 24260
L39230 24260
L39230 24070
L39250 24020
L39270 24000
L39320 23980
L39390 23980
L39440 24000
L39460 24020
L39490 24070
L39490 24260
" />
<path d="M39230 23810
L39230 23500
L39420 23670
L39420 23590
L39440 23550
L39460 23520
L39510 23500
L39630 23500
L39680 23520
L39700 23550
L39730 23590
L39730 23740
L39700 23780
L39680 23810
" />
</g>
<g style="fill:#840000; fill-opacity:0.0; 
stroke:#840000; stroke-width:60; stroke-opacity:1; 
stroke-linecap:round; stroke-linejoin:round;">
<path d="M38880 22420
L38880 22090
L39380 22300
" />
<path d="M46000 26500
L47500 26500
" />
</g>
<g style="fill:#008484; fill-opacity:0.0; 
stroke:#008484; stroke-width:60; stroke-opacity:1; 
stroke-linecap:round; stroke-linejoin:round;">
<path d="M44260 26230
L44420 26730
L44590 26230
" />
<path d="M44740 26700
L44810 26730
L44930 26730
L44970 26700
L45000 26680
L45020 26630
L45020 26580
L45000 26540
L44970 26510
L44930 26490
L44830 26460
L44780 26440
L44760 26420
L44740 26370
L44740 26320
L44760 26270
L44780 26250
L44830 26230
L44950 26230
L45020 26250
" />
<path d="M45220 26700
L45290 26730
L45410 26730
L45450 26700
L45480 26680
L45500 26630
L45500 26580
L45480 26540
L45450 26510
L45410 26490
L45310 26460
L45260 26440
L45240 26420
L45220 26370
L45220 26320
L45240 26270
L45260 26250
L45310 26230
L45430 26230
L45500 26250
" />
</g>
<g style="fill:#840000; fill-opacity:0.0; 
stroke:#840000; stroke-width:60; stroke-opacity:1; 
stroke-linecap:round; stroke-linejoin:round;">
<path d="M46700 26090
L46650 26070
L46630 26040
L46610 26000
L46610 25970
L46630 25920
L46650 25900
L46700 25880
L46800 25880
L46840 25900
L46870 25920
L46890 25970
L46890 26000
L46870 26040
L46840 26070
L46800 26090
L46700 26090
L46650 26110
L46630 26140
L46610 26190
L46610 26280
L46630 26330
L46650 26350
L46700 26380
L46800 26380
L46840 26350
L46870 26330
L46890 26280
L46890 26190
L46870 26140
L46840 26110
L46800 26090
" />
<path d="M40500 23000
L40500 21500
" />
</g>
<g style="fill:#008484; fill-opacity:0.0; 
stroke:#008484; stroke-width:60; stroke-opacity:1; 
stroke-linecap:round; stroke-linejoin:round;">
<path d="M40730 24260
L40230 24260
L40230 24070
L40250 24020
L40270 24000
L40320 23980
L40390 23980
L40440 24000
L40460 24020
L40490 24070
L40490 24260
" />
<path d="M40390 23550
L40730 23550
" />
<path d="M40200 23670
L40560 23780
L40560 23480
" />
</g>
<g style="fill:#840000; fill-opacity:0.0; 
stroke:#840000; stroke-width:60; stroke-opacity:1; 
stroke-linecap:round; stroke-linejoin:round;">
<path d="M40380 22350
L40380 22250
L40350 22200
L40330 22180
L40260 22130
L40160 22110
L39970 22110
L39920 22130
L39900 22160
L39880 22200
L39880 22300
L39900 22350
L39920 22370
L39970 22390
L40090 22390
L40140 22370
L40160 22350
L40190 22300
L40190 22200
L40160 22160
L40140 22130
L40090 22110
" />
<path d="M41500 23000
L41500 21500
" />
</g>
<g style="fill:#008484; fill-opacity:0.0; 
stroke:#008484; stroke-width:60; stroke-opacity:1; 
stroke-linecap:round; stroke-linejoin:round;">
<path d="M41730 24260
L41230 24260
L41230 24070
L41250 24020
L41270 24000
L41320 23980
L41390 23980
L41440 24000
L41460 24020
L41490 24070
L41490 24260
" />
<path d="M41230 23520
L41230 23760
L41460 23780
L41440 23760
L41420 23710
L41420 23590
L41440 23550
L41460 23520
L41510 23500
L41630 23500
L41680 23520
L41700 23550
L41730 23590
L41730 23710
L41700 23760
L41680 23780
" />
</g>
<g style="fill:#840000; fill-opacity:0.0; 
stroke:#840000; stroke-width:60; stroke-opacity:1; 
stroke-linecap:round; stroke-linejoin:round;">
<path d="M41380 22350
L41380 22630
" />
<path d="M41380 22490
L40880 22490
L40950 22540
L41000 22590
L41020 22630
" />
<path d="M40880 22040
L40880 21990
L40900 21940
L40920 21920
L40970 21890
L41070 21870
L41190 21870
L41280 21890
L41330 21920
L41350 21940
L41380 21990
L41380 22040
L41350 22080
L41330 22110
L41280 22130
L41190 22150
L41070 22150
L40970 22130
L40920 22110
L40900 22080
L40880 22040
" />
<path d="M42500 23000
L42500 21500
" />
</g>
<g style="fill:#008484; fill-opacity:0.0; 
stroke:#008484; stroke-width:60; stroke-opacity:1; 
stroke-linecap:round; stroke-linejoin:round;">
<path d="M42730 24260
L42230 24260
L42230 24070
L42250 24020
L42270 24000
L42320 23980
L42390 23980
L42440 24000
L42460 24020
L42490 24070
L42490 24260
" />
<path d="M42230 23550
L42230 23640
L42250 23690
L42270 23710
L42350 23760
L42440 23780
L42630 23780
L42680 23760
L42700 23740
L42730 23690
L42730 23590
L42700 23550
L42680 23520
L42630 23500
L42510 23500
L42460 23520
L42440 23550
L42420 23590
L42420 23690
L42440 23740
L42460 23760
L42510 23780
" />
</g>
<g style="fill:#840000; fill-opacity:0.0; 
stroke:#840000; stroke-width:60; stroke-opacity:1; 
stroke-linecap:round; stroke-linejoin:round;">
<path d="M42380 22350
L42380 22630
" />
<path d="M42380 22490
L41880 22490
L41950 22540
L42000 22590
L42020 22630
" />
<path d="M42380 21870
L42380 22150
" />
<path d="M42380 22010
L41880 22010
L41950 22060
L42000 22110
L42020 22150
" />
<path d="M43500 23000
L43500 21500
" />
</g>
<g style="fill:#008484; fill-opacity:0.0; 
stroke:#008484; stroke-width:60; stroke-opacity:1; 
stroke-linecap:round; stroke-linejoin:round;">
<path d="M43730 24260
L43230 24260
L43230 24070
L43250 24020
L43270 24000
L43320 23980
L43390 23980
L43440 24000
L43460 24020
L43490 24070
L43490 24260
" />
<path d="M43230 23810
L43230 23480
L43730 23690
" />
</g>
<g style="fill:#840000; fill-opacity:0.0; 
stroke:#840000; stroke-width:60; stroke-opacity:1; 
stroke-linecap:round; stroke-linejoin:round;">
<path d="M43380 22350
L43380 22630
" />
<path d="M43380 22490
L42880 22490
L42950 22540
L43000 22590
L43020 22630
" />
<path d="M42920 22150
L42900 22130
L42880 22080
L42880 21960
L42900 21920
L42920 21890
L42970 21870
L43020 21870
L43090 21890
L43380 22180
L43380 21870
" />
<path d="M44500 30000
L44500 31500
" />
<path d="M44000 30000
L44500 30500
" />
</g>
<g style="fill:#008484; fill-opacity:0.0; 
stroke:#008484; stroke-width:60; stroke-opacity:1; 
stroke-linecap:round; stroke-linejoin:round;">
<path d="M44730 29480
L44230 29480
" />
<path d="M44730 29240
L44230 29240
L44730 28960
L44230 28960
" />
<path d="M44230 28790
L44230 28510
" />
<path d="M44730 28650
L44230 28650
" />
<path d="M44140 29600
L44140 28460
" />
</g>
<g style="fill:#840000; fill-opacity:0.0; 
stroke:#840000; stroke-width:60; stroke-opacity:1; 
stroke-linecap:round; stroke-linejoin:round;">
<path d="M44380 30850
L44380 31130
" />
<path d="M44380 30990
L43880 30990
L43950 31040
L44000 31090
L44020 31130
" />
<path d="M43880 30680
L43880 30370
L44070 30540
L44070 30460
L44090 30420
L44110 30390
L44160 30370
L44280 30370
L44330 30390
L44350 30420
L44380 30460
L44380 30610
L44350 30650
L44330 30680
" />
<path d="M36500 30000
L36500 31500
" />
</g>
<g style="fill:#008484; fill-opacity:0.0; 
stroke:#008484; stroke-width:60; stroke-opacity:1; 
stroke-linecap:round; stroke-linejoin:round;">
<path d="M36700 29500
L36730 29430
L36730 29310
L36700 29270
L36680 29240
L36630 29220
L36580 29220
L36540 29240
L36510 29270
L36490 29310
L36460 29410
L36440 29460
L36420 29480
L36370 29500
L36320 29500
L36270 29480
L36250 29460
L36230 29410
L36230 29290
L36250 29220
" />
<path d="M36680 28720
L36700 28740
L36730 28810
L36730 28860
L36700 28930
L36650 28980
L36610 29000
L36510 29020
L36440 29020
L36350 29000
L36300 28980
L36250 28930
L36230 28860
L36230 28810
L36250 28740
L36270 28720
" />
<path d="M36730 28260
L36730 28500
L36230 28500
" />
</g>
<g style="fill:#840000; fill-opacity:0.0; 
stroke:#840000; stroke-width:60; stroke-opacity:1; 
stroke-linecap:round; stroke-linejoin:round;">
<path d="M36380 30850
L36380 31130
" />
<path d="M36380 30990
L35880 30990
L35950 31040
L36000 31090
L36020 31130
" />
<path d="M36040 30420
L36380 30420
" />
<path d="M35850 30540
L36210 30650
L36210 30350
" />
<path d="M37500 30000
L37500 31500
" />
</g>
<g style="fill:#008484; fill-opacity:0.0; 
stroke:#008484; stroke-width:60; stroke-opacity:1; 
stroke-linecap:round; stroke-linejoin:round;">
<path d="M37700 29500
L37730 29430
L37730 29310
L37700 29270
L37680 29240
L37630 29220
L37580 29220
L37540 29240
L37510 29270
L37490 29310
L37460 29410
L37440 29460
L37420 29480
L37370 29500
L37320 29500
L37270 29480
L37250 29460
L37230 29410
L37230 29290
L37250 29220
" />
<path d="M37730 29000
L37230 29000
L37230 28880
L37250 28810
L37300 28760
L37350 28740
L37440 28720
L37510 28720
L37610 28740
L37650 28760
L37700 28810
L37730 28880
L37730 29000
" />
<path d="M37580 28520
L37580 28290
" />
<path d="M37730 28570
L37230 28410
L37730 28240
" />
</g>
<g style="fill:#840000; fill-opacity:0.0; 
stroke:#840000; stroke-width:60; stroke-opacity:1; 
stroke-linecap:round; stroke-linejoin:round;">
<path d="M37380 30850
L37380 31130
" />
<path d="M37380 30990
L36880 30990
L36950 31040
L37000 31090
L37020 31130
" />
<path d="M36880 30390
L36880 30630
L37110 30650
L37090 30630
L37070 30580
L37070 30460
L37090 30420
L37110 30390
L37160 30370
L37280 30370
L37330 30390
L37350 30420
L37380 30460
L37380 30580
L37350 30630
L37330 30650
" />
<path d="M35000 26500
L33500 26500
" />
</g>
<g style="fill:#008484; fill-opacity:0.0; 
stroke:#008484; stroke-width:60; stroke-opacity:1; 
stroke-linecap:round; stroke-linejoin:round;">
<path d="M35450 26230
L35610 26730
L35780 26230
" />
<path d="M35950 26730
L35950 26230
L36070 26230
L36140 26250
L36190 26300
L36210 26350
L36230 26440
L36230 26510
L36210 26610
L36190 26650
L36140 26700
L36070 26730
L35950 26730
" />
<path d="M36450 26730
L36450 26230
L36570 26230
L36640 26250
L36690 26300
L36710 26350
L36730 26440
L36730 26510
L36710 26610
L36690 26650
L36640 26700
L36570 26730
L36450 26730
" />
</g>
<g style="fill:#840000; fill-opacity:0.0; 
stroke:#840000; stroke-width:60; stroke-opacity:1; 
stroke-linecap:round; stroke-linejoin:round;">
<path d="M34150 26380
L33870 26380
" />
<path d="M34010 26380
L34010 25880
L33960 25950
L33910 26000
L33870 26020
" />
<path d="M34580 25880
L34490 25880
L34440 25900
L34420 25920
L34370 26000
L34350 26090
L34350 26280
L34370 26330
L34390 26350
L34440 26380
L34540 26380
L34580 26350
L34610 26330
L34630 26280
L34630 26160
L34610 26110
L34580 26090
L34540 26070
L34440 26070
L34390 26090
L34370 26110
L34350 26160
" />
</g>
<g style="fill:#008484; fill-opacity:0.0; 
stroke:#008484; stroke-width:60; stroke-opacity:1; 
stroke-linecap:round; stroke-linejoin:round;">
<path d="M34120 22260
L34120 22660
L34140 22710
L34170 22730
L34210 22760
L34310 22760
L34360 22730
L34380 22710
L34400 22660
L34400 22260
" />
<path d="M34900 22760
L34620 22760
" />
<path d="M34760 22760
L34760 22260
L34710 22330
L34660 22380
L34620 22400
" />
<path d="M43840 22760
L43840 22260
L44030 22260
L44080 22280
L44100 22300
L44120 22350
L44120 22420
L44100 22470
L44080 22490
L44030 22520
L43840 22520
" />
<path d="M44620 22710
L44600 22730
L44530 22760
L44480 22760
L44410 22730
L44360 22680
L44340 22640
L44320 22540
L44320 22470
L44340 22380
L44360 22330
L44410 22280
L44480 22260
L44530 22260
L44600 22280
L44620 22300
" />
<path d="M45010 22490
L44840 22490
" />
<path d="M44840 22760
L44840 22260
L45080 22260
" />
<path d="M45340 22470
L45290 22450
L45270 22420
L45250 22380
L45250 22350
L45270 22300
L45290 22280
L45340 22260
L45440 22260
L45480 22280
L45510 22300
L45530 22350
L45530 22380
L45510 22420
L45480 22450
L45440 22470
L45340 22470
L45290 22490
L45270 22520
L45250 22570
L45250 22660
L45270 22710
L45290 22730
L45340 22760
L45440 22760
L45480 22730
L45510 22710
L45530 22660
L45530 22570
L45510 22520
L45480 22490
L45440 22470
" />
<path d="M45990 22260
L45750 22260
L45730 22490
L45750 22470
L45800 22450
L45920 22450
L45960 22470
L45990 22490
L46010 22540
L46010 22660
L45990 22710
L45960 22730
L45920 22760
L45800 22760
L45750 22730
L45730 22710
" />
<path d="M46180 22260
L46510 22260
L46300 22760
" />
<path d="M46920 22420
L46920 22760
" />
<path d="M46800 22230
L46690 22590
L46990 22590
" />
<path d="M47170 22610
L47400 22610
" />
<path d="M47120 22760
L47280 22260
L47450 22760
" />
</g>
<g style="fill:#008484; fill-opacity:0.0; 
stroke:#008484; stroke-width:0; stroke-opacity:1; 
stroke-linecap:round; stroke-linejoin:round;">
</g>
<g style="fill:#840000; fill-opacity:0.0; 
stroke:#840000; stroke-width:0; stroke-opacity:1; 
stroke-linecap:round; stroke-linejoin:round;">
</g>
<g style="fill:#840000; fill-opacity:0.0; 
stroke:#840000; stroke-width:60; stroke-opacity:1; 
stroke-linecap:round; stroke-linejoin:round;">
<rect x="23000" y="32950" width="500" height="100" rx="0" />
<rect x="23000" y="31950" width="500" height="100" rx="0" />
<rect x="23000" y="30950" width="500" height="100" rx="0" />
<rect x="23000" y="29950" width="500" height="100" rx="0" />
<rect x="23000" y="28950" width="500" height="100" rx="0" />
<rect x="23000" y="27950" width="500" height="100" rx="0" />
<rect x="23000" y="26950" width="500" height="100" rx="0" />
<rect x="23000" y="25950" width="500" height="100" rx="0" />
<rect x="23000" y="24950" width="500" height="100" rx="0" />
<rect x="23000" y="23950" width="500" height="100" rx="0" />
<rect x="23000" y="22950" width="500" height="100" rx="0" />
<rect x="23000" y="21950" width="500" height="100" rx="0" />
<rect x="23000" y="20950" width="500" height="100" rx="0" />
<rect x="23000" y="20500" width="2000" height="13000" rx="0" />
<rect x="24500" y="32950" width="500" height="100" rx="0" />
<rect x="24500" y="31950" width="500" height="100" rx="0" />
<rect x="24500" y="30950" width="500" height="100" rx="0" />
<rect x="24500" y="29950" width="500" height="100" rx="0" />
<rect x="24500" y="28950" width="500" height="100" rx="0" />
<rect x="24500" y="27950" width="500" height="100" rx="0" />
<rect x="24500" y="26950" width="500" height="100" rx="0" />
<rect x="24500" y="25950" width="500" height="100" rx="0" />
<rect x="24500" y="24950" width="500" height="100" rx="0" />
<rect x="24500" y="23950" width="500" height="100" rx="0" />
<rect x="24500" y="22950" width="500" height="100" rx="0" />
<rect x="24500" y="21950" width="500" height="100" rx="0" />
<rect x="24500" y="20950" width="500" height="100" rx="0" />
<path d="M23000 21000
L21500 21000
" />
<path d="M22390 20880
L22110 20880
" />
<path d="M22250 20880
L22250 20380
L22200 20450
L22150 20500
L22110 20520
" />
<path d="M25000 21000
L26500 21000
" />
<path d="M25610 20420
L25630 20400
L25680 20380
L25800 20380
L25840 20400
L25870 20420
L25890 20470
L25890 20520
L25870 20590
L25580 20880
L25890 20880
" />
<path d="M23000 22000
L21500 22000
" />
<path d="M22080 21380
L22390 21380
L22220 21570
L22300 21570
L22340 21590
L22370 21610
L22390 21660
L22390 21780
L22370 21830
L22340 21850
L22300 21880
L22150 21880
L22110 21850
L22080 21830
" />
<path d="M25000 22000
L26500 22000
" />
<path d="M25840 21540
L25840 21880
" />
<path d="M25720 21350
L25610 21710
L25910 21710
" />
<path d="M23000 23000
L21500 23000
" />
<path d="M22370 22380
L22130 22380
L22110 22610
L22130 22590
L22180 22570
L22300 22570
L22340 22590
L22370 22610
L22390 22660
L22390 22780
L22370 22830
L22340 22850
L22300 22880
L22180 22880
L22130 22850
L22110 22830
" />
<path d="M25000 23000
L26500 23000
" />
<path d="M25840 22380
L25750 22380
L25700 22400
L25680 22420
L25630 22500
L25610 22590
L25610 22780
L25630 22830
L25650 22850
L25700 22880
L25800 22880
L25840 22850
L25870 22830
L25890 22780
L25890 22660
L25870 22610
L25840 22590
L25800 22570
L25700 22570
L25650 22590
L25630 22610
L25610 22660
" />
<path d="M23000 24000
L21500 24000
" />
<path d="M22080 23380
L22410 23380
L22200 23880
" />
<path d="M25000 24000
L26500 24000
" />
<path d="M25700 23590
L25650 23570
L25630 23540
L25610 23500
L25610 23470
L25630 23420
L25650 23400
L25700 23380
L25800 23380
L25840 23400
L25870 23420
L25890 23470
L25890 23500
L25870 23540
L25840 23570
L25800 23590
L25700 23590
L25650 23610
L25630 23640
L25610 23690
L25610 23780
L25630 23830
L25650 23850
L25700 23880
L25800 23880
L25840 23850
L25870 23830
L25890 23780
L25890 23690
L25870 23640
L25840 23610
L25800 23590
" />
<path d="M23000 25000
L21500 25000
" />
<path d="M22150 24880
L22250 24880
L22300 24850
L22320 24830
L22370 24760
L22390 24660
L22390 24470
L22370 24420
L22340 24400
L22300 24380
L22200 24380
L22150 24400
L22130 24420
L22110 24470
L22110 24590
L22130 24640
L22150 24660
L22200 24690
L22300 24690
L22340 24660
L22370 24640
L22390 24590
" />
<path d="M25000 25000
L26500 25000
" />
<path d="M25650 24880
L25370 24880
" />
<path d="M25510 24880
L25510 24380
L25460 24450
L25410 24500
L25370 24520
" />
<path d="M25960 24380
L26010 24380
L26060 24400
L26080 24420
L26110 24470
L26130 24570
L26130 24690
L26110 24780
L26080 24830
L26060 24850
L26010 24880
L25960 24880
L25920 24850
L25890 24830
L25870 24780
L25850 24690
L25850 24570
L25870 24470
L25890 24420
L25920 24400
L25960 24380
" />
<path d="M25000 30000
L26500 30000
" />
<path d="M25370 29420
L25390 29400
L25440 29380
L25560 29380
L25600 29400
L25630 29420
L25650 29470
L25650 29520
L25630 29590
L25340 29880
L25650 29880
" />
<path d="M25960 29380
L26010 29380
L26060 29400
L26080 29420
L26110 29470
L26130 29570
L26130 29690
L26110 29780
L26080 29830
L26060 29850
L26010 29880
L25960 29880
L25920 29850
L25890 29830
L25870 29780
L25850 29690
L25850 29570
L25870 29470
L25890 29420
L25920 29400
L25960 29380
" />
<path d="M23000 26000
L21500 26000
" />
<path d="M22150 25880
L21870 25880
" />
<path d="M22010 25880
L22010 25380
L21960 25450
L21910 25500
L21870 25520
" />
<path d="M22630 25880
L22350 25880
" />
<path d="M22490 25880
L22490 25380
L22440 25450
L22390 25500
L22350 25520
" />
<path d="M23000 31000
L21500 31000
" />
<path d="M21870 30420
L21890 30400
L21940 30380
L22060 30380
L22100 30400
L22130 30420
L22150 30470
L22150 30520
L22130 30590
L21840 30880
L22150 30880
" />
<path d="M22630 30880
L22350 30880
" />
<path d="M22490 30880
L22490 30380
L22440 30450
L22390 30500
L22350 30520
" />
<path d="M25000 26000
L26500 26000
" />
<path d="M25650 25880
L25370 25880
" />
<path d="M25510 25880
L25510 25380
L25460 25450
L25410 25500
L25370 25520
" />
<path d="M25850 25420
L25870 25400
L25920 25380
L26040 25380
L26080 25400
L26110 25420
L26130 25470
L26130 25520
L26110 25590
L25820 25880
L26130 25880
" />
<path d="M25000 31000
L26500 31000
" />
<path d="M25370 30420
L25390 30400
L25440 30380
L25560 30380
L25600 30400
L25630 30420
L25650 30470
L25650 30520
L25630 30590
L25340 30880
L25650 30880
" />
<path d="M25850 30420
L25870 30400
L25920 30380
L26040 30380
L26080 30400
L26110 30420
L26130 30470
L26130 30520
L26110 30590
L25820 30880
L26130 30880
" />
<path d="M23000 27000
L21500 27000
" />
<path d="M22150 26880
L21870 26880
" />
<path d="M22010 26880
L22010 26380
L21960 26450
L21910 26500
L21870 26520
" />
<path d="M22320 26380
L22630 26380
L22460 26570
L22540 26570
L22580 26590
L22610 26610
L22630 26660
L22630 26780
L22610 26830
L22580 26850
L22540 26880
L22390 26880
L22350 26850
L22320 26830
" />
<path d="M23000 32000
L21500 32000
" />
<path d="M21870 31420
L21890 31400
L21940 31380
L22060 31380
L22100 31400
L22130 31420
L22150 31470
L22150 31520
L22130 31590
L21840 31880
L22150 31880
" />
<path d="M22320 31380
L22630 31380
L22460 31570
L22540 31570
L22580 31590
L22610 31610
L22630 31660
L22630 31780
L22610 31830
L22580 31850
L22540 31880
L22390 31880
L22350 31850
L22320 31830
" />
<path d="M25000 27000
L26500 27000
" />
<path d="M25650 26880
L25370 26880
" />
<path d="M25510 26880
L25510 26380
L25460 26450
L25410 26500
L25370 26520
" />
<path d="M26080 26540
L26080 26880
" />
<path d="M25960 26350
L25850 26710
L26150 26710
" />
<path d="M25000 32000
L26500 32000
" />
<path d="M25370 31420
L25390 31400
L25440 31380
L25560 31380
L25600 31400
L25630 31420
L25650 31470
L25650 31520
L25630 31590
L25340 31880
L25650 31880
" />
<path d="M26080 31540
L26080 31880
" />
<path d="M25960 31350
L25850 31710
L26150 31710
" />
<path d="M23000 28000
L21500 28000
" />
<path d="M22150 27880
L21870 27880
" />
<path d="M22010 27880
L22010 27380
L21960 27450
L21910 27500
L21870 27520
" />
<path d="M22610 27380
L22370 27380
L22350 27610
L22370 27590
L22420 27570
L22540 27570
L22580 27590
L22610 27610
L22630 27660
L22630 27780
L22610 27830
L22580 27850
L22540 27880
L22420 27880
L22370 27850
L22350 27830
" />
<path d="M23000 33000
L21500 33000
" />
<path d="M21870 32420
L21890 32400
L21940 32380
L22060 32380
L22100 32400
L22130 32420
L22150 32470
L22150 32520
L22130 32590
L21840 32880
L22150 32880
" />
<path d="M22610 32380
L22370 32380
L22350 32610
L22370 32590
L22420 32570
L22540 32570
L22580 32590
L22610 32610
L22630 32660
L22630 32780
L22610 32830
L22580 32850
L22540 32880
L22420 32880
L22370 32850
L22350 32830
" />
<path d="M25000 28000
L26500 28000
" />
<path d="M25650 27880
L25370 27880
" />
<path d="M25510 27880
L25510 27380
L25460 27450
L25410 27500
L25370 27520
" />
<path d="M26080 27380
L25990 27380
L25940 27400
L25920 27420
L25870 27500
L25850 27590
L25850 27780
L25870 27830
L25890 27850
L25940 27880
L26040 27880
L26080 27850
L26110 27830
L26130 27780
L26130 27660
L26110 27610
L26080 27590
L26040 27570
L25940 27570
L25890 27590
L25870 27610
L25850 27660
" />
<path d="M25000 33000
L26500 33000
" />
<path d="M25370 32420
L25390 32400
L25440 32380
L25560 32380
L25600 32400
L25630 32420
L25650 32470
L25650 32520
L25630 32590
L25340 32880
L25650 32880
" />
<path d="M26080 32380
L25990 32380
L25940 32400
L25920 32420
L25870 32500
L25850 32590
L25850 32780
L25870 32830
L25890 32850
L25940 32880
L26040 32880
L26080 32850
L26110 32830
L26130 32780
L26130 32660
L26110 32610
L26080 32590
L26040 32570
L25940 32570
L25890 32590
L25870 32610
L25850 32660
" />
<path d="M23000 29000
L21500 29000
" />
<path d="M22150 28880
L21870 28880
" />
<path d="M22010 28880
L22010 28380
L21960 28450
L21910 28500
L21870 28520
" />
<path d="M22320 28380
L22650 28380
L22440 28880
" />
<path d="M25000 29000
L26500 29000
" />
<path d="M25650 28880
L25370 28880
" />
<path d="M25510 28880
L25510 28380
L25460 28450
L25410 28500
L25370 28520
" />
<path d="M25940 28590
L25890 28570
L25870 28540
L25850 28500
L25850 28470
L25870 28420
L25890 28400
L25940 28380
L26040 28380
L26080 28400
L26110 28420
L26130 28470
L26130 28500
L26110 28540
L26080 28570
L26040 28590
L25940 28590
L25890 28610
L25870 28640
L25850 28690
L25850 28780
L25870 28830
L25890 28850
L25940 28880
L26040 28880
L26080 28850
L26110 28830
L26130 28780
L26130 28690
L26110 28640
L26080 28610
L26040 28590
" />
<path d="M23000 30000
L21500 30000
" />
<path d="M22150 29880
L21870 29880
" />
<path d="M22010 29880
L22010 29380
L21960 29450
L21910 29500
L21870 29520
" />
<path d="M22390 29880
L22490 29880
L22540 29850
L22560 29830
L22610 29760
L22630 29660
L22630 29470
L22610 29420
L22580 29400
L22540 29380
L22440 29380
L22390 29400
L22370 29420
L22350 29470
L22350 29590
L22370 29640
L22390 29660
L22440 29690
L22540 29690
L22580 29660
L22610 29640
L22630 29590
" />
</g>
<g style="fill:#008484; fill-opacity:0.0; 
stroke:#008484; stroke-width:60; stroke-opacity:1; 
stroke-linecap:round; stroke-linejoin:round;">
<path d="M23630 20200
L23630 19700
L23820 19700
L23870 19720
L23890 19740
L23910 19790
L23910 19860
L23890 19910
L23870 19930
L23820 19960
L23630 19960
" />
<path d="M24390 20200
L24110 20200
" />
<path d="M24250 20200
L24250 19700
L24200 19770
L24150 19820
L24110 19840
" />
<path d="M24150 29020
L24170 29040
L24200 29110
L24200 29160
L24170 29230
L24120 29280
L24080 29300
L23980 29320
L23910 29320
L23820 29300
L23770 29280
L23720 29230
L23700 29160
L23700 29110
L23720 29040
L23740 29020
" />
<path d="M23700 28710
L23700 28610
L23720 28560
L23770 28520
L23860 28490
L24030 28490
L24120 28520
L24170 28560
L24200 28610
L24200 28710
L24170 28750
L24120 28800
L24030 28820
L23860 28820
L23770 28800
L23720 28750
L23700 28710
" />
<path d="M24200 28280
L23700 28280
L24200 28000
L23700 28000
" />
<path d="M24200 27760
L23700 27760
L24200 27480
L23700 27480
" />
<path d="M24240 27360
L24240 26980
" />
<path d="M23700 26770
L23700 26720
L23720 26670
L23740 26650
L23790 26620
L23890 26600
L24010 26600
L24100 26620
L24150 26650
L24170 26670
L24200 26720
L24200 26770
L24170 26810
L24150 26840
L24100 26860
L24010 26880
L23890 26880
L23790 26860
L23740 26840
L23720 26810
L23700 26770
" />
<path d="M23740 26400
L23720 26380
L23700 26330
L23700 26210
L23720 26170
L23740 26140
L23790 26120
L23840 26120
L23910 26140
L24200 26430
L24200 26120
" />
<path d="M23700 25950
L24200 25620
" />
<path d="M23700 25620
L24200 25950
" />
<path d="M24200 25160
L24200 25440
" />
<path d="M24200 25300
L23700 25300
L23770 25350
L23820 25400
L23840 25440
" />
<path d="M23700 24990
L23700 24680
L23890 24850
L23890 24770
L23910 24730
L23930 24700
L23980 24680
L24100 24680
L24150 24700
L24170 24730
L24200 24770
L24200 24920
L24170 24960
L24150 24990
" />
</g>
<g style="fill:#008484; fill-opacity:0.0; 
stroke:#008484; stroke-width:0; stroke-opacity:1; 
stroke-linecap:round; stroke-linejoin:round;">
</g>
<g style="fill:#840000; fill-opacity:0.0; 
stroke:#840000; stroke-width:0; stroke-opacity:1; 
stroke-linecap:round; stroke-linejoin:round;">
</g>
<g style="fill:#FFFFC1; fill-opacity:0.0; 
stroke:#FFFFC1; stroke-width:0; stroke-opacity:1; 
stroke-linecap:round; stroke-linejoin:round;">
</g>
<g style="fill:#FFFFC1; fill-opacity:0.6; 
stroke:#FFFFC1; stroke-width:0; stroke-opacity:1; 
stroke-linecap:round; stroke-linejoin:round;">
<rect x="29500" y="8000" width="17000" height="7000" rx="0" />
</g>
<g style="fill:#840000; fill-opacity:0.6; 
stroke:#840000; stroke-width:0; stroke-opacity:1; 
stroke-linecap:round; stroke-linejoin:round;">
</g>
<g style="fill:#840000; fill-opacity:0.0; 
stroke:#840000; stroke-width:60; stroke-opacity:1; 
stroke-linecap:round; stroke-linejoin:round;">
<rect x="29500" y="8000" width="17000" height="7000" rx="0" />
</g>
<g style="fill:#840000; fill-opacity:0.0; 
stroke:#840000; stroke-width:160; stroke-opacity:1; 
stroke-linecap:round; stroke-linejoin:round;">
<path d="M36690 10140
L36730 10100
L36810 10060
L37000 10060
L37070 10100
L37110 10140
L37150 10210
L37150 10290
L37110 10400
L36650 10860
L37150 10860
" />
<path d="M37640 10060
L37720 10060
L37800 10100
L37830 10140
L37870 10210
L37910 10370
L37910 10560
L37870 10710
L37830 10790
L37800 10820
L37720 10860
L37640 10860
L37570 10820
L37530 10790
L37490 10710
L37450 10560
L37450 10370
L37490 10210
L37530 10140
L37570 10100
L37640 10060
" />
<path d="M38170 10860
L38590 10330
" />
<path d="M38170 10330
L38590 10860
" />
<path d="M39240 10330
L39240 10860
" />
<path d="M39050 10020
L38860 10600
L39360 10600
" />
</g>
<g style="fill:#840000; fill-opacity:0.0; 
stroke:#840000; stroke-width:200; stroke-opacity:1; 
stroke-linecap:round; stroke-linejoin:round;">
<rect x="30500" y="9000" width="15000" height="3500" rx="0" />
</g>
<g style="fill:#840000; fill-opacity:0.0; 
stroke:#840000; stroke-width:60; stroke-opacity:1; 
stroke-linecap:round; stroke-linejoin:round;">
<path d="M30500 15000
L30500 16500
" />
</g>
<g style="fill:#008484; fill-opacity:0.0; 
stroke:#008484; stroke-width:60; stroke-opacity:1; 
stroke-linecap:round; stroke-linejoin:round;">
<path d="M30280 14560
L30680 14430
L30280 14300
" />
<path d="M30660 14180
L30680 14130
L30680 14030
L30660 13990
L30640 13970
L30600 13960
L30570 13960
L30530 13970
L30510 13990
L30490 14030
L30470 14110
L30450 14150
L30430 14160
L30400 14180
L30360 14180
L30320 14160
L30300 14150
L30280 14110
L30280 14010
L30300 13960
" />
<path d="M30660 13800
L30680 13750
L30680 13650
L30660 13610
L30640 13590
L30600 13580
L30570 13580
L30530 13590
L30510 13610
L30490 13650
L30470 13730
L30450 13770
L30430 13780
L30400 13800
L30360 13800
L30320 13780
L30300 13770
L30280 13730
L30280 13630
L30300 13580
" />
</g>
<g style="fill:#840000; fill-opacity:0.0; 
stroke:#840000; stroke-width:60; stroke-opacity:1; 
stroke-linecap:round; stroke-linejoin:round;">
<path d="M30380 15640
L30380 15860
" />
<path d="M30380 15750
L29980 15750
L30040 15790
L30080 15830
L30100 15860
" />
<path d="M31500 15000
L31500 16500
" />
</g>
<g style="fill:#008484; fill-opacity:0.0; 
stroke:#008484; stroke-width:60; stroke-opacity:1; 
stroke-linecap:round; stroke-linejoin:round;">
<path d="M31280 14560
L31680 14430
L31280 14300
" />
<path d="M31680 14160
L31280 14160
L31280 14070
L31300 14010
L31340 13970
L31380 13960
L31450 13940
L31510 13940
L31590 13960
L31620 13970
L31660 14010
L31680 14070
L31680 14160
" />
<path d="M31680 13760
L31280 13760
L31280 13670
L31300 13610
L31340 13570
L31380 13560
L31450 13540
L31510 13540
L31590 13560
L31620 13570
L31660 13610
L31680 13670
L31680 13760
" />
</g>
<g style="fill:#840000; fill-opacity:0.0; 
stroke:#840000; stroke-width:60; stroke-opacity:1; 
stroke-linecap:round; stroke-linejoin:round;">
<path d="M31020 15860
L31000 15840
L30980 15810
L30980 15710
L31000 15670
L31020 15650
L31060 15640
L31100 15640
L31150 15650
L31380 15880
L31380 15640
" />
<path d="M32500 15000
L32500 16500
" />
</g>
<g style="fill:#008484; fill-opacity:0.0; 
stroke:#008484; stroke-width:60; stroke-opacity:1; 
stroke-linecap:round; stroke-linejoin:round;">
<path d="M32280 14560
L32680 14430
L32280 14300
" />
<path d="M32280 14090
L32280 14010
L32300 13970
L32340 13940
L32410 13920
L32550 13920
L32620 13940
L32660 13970
L32680 14010
L32680 14090
L32660 14130
L32620 14160
L32550 14180
L32410 14180
L32340 14160
L32300 14130
L32280 14090
" />
</g>
<g style="fill:#840000; fill-opacity:0.0; 
stroke:#840000; stroke-width:60; stroke-opacity:1; 
stroke-linecap:round; stroke-linejoin:round;">
<path d="M31980 15880
L31980 15640
L32130 15770
L32130 15710
L32150 15670
L32170 15650
L32210 15640
L32300 15640
L32340 15650
L32360 15670
L32380 15710
L32380 15830
L32360 15860
L32340 15880
" />
<path d="M33500 15000
L33500 16500
" />
</g>
<g style="fill:#008484; fill-opacity:0.0; 
stroke:#008484; stroke-width:60; stroke-opacity:1; 
stroke-linecap:round; stroke-linejoin:round;">
<path d="M33680 14280
L33490 14410
" />
<path d="M33680 14500
L33280 14500
L33280 14350
L33300 14310
L33320 14300
L33360 14280
L33410 14280
L33450 14300
L33470 14310
L33490 14350
L33490 14500
" />
<path d="M33660 14120
L33680 14070
L33680 13970
L33660 13930
L33640 13910
L33600 13900
L33570 13900
L33530 13910
L33510 13930
L33490 13970
L33470 14050
L33450 14090
L33430 14100
L33400 14120
L33360 14120
L33320 14100
L33300 14090
L33280 14050
L33280 13950
L33300 13900
" />
</g>
<g style="fill:#840000; fill-opacity:0.0; 
stroke:#840000; stroke-width:60; stroke-opacity:1; 
stroke-linecap:round; stroke-linejoin:round;">
<path d="M33110 15670
L33380 15670
" />
<path d="M32960 15770
L33250 15860
L33250 15620
" />
<path d="M34500 15000
L34500 16500
" />
</g>
<g style="fill:#008484; fill-opacity:0.0; 
stroke:#008484; stroke-width:60; stroke-opacity:1; 
stroke-linecap:round; stroke-linejoin:round;">
<path d="M34680 14280
L34490 14410
" />
<path d="M34680 14500
L34280 14500
L34280 14350
L34300 14310
L34320 14300
L34360 14280
L34410 14280
L34450 14300
L34470 14310
L34490 14350
L34490 14500
" />
<path d="M34260 13820
L34780 14160
" />
<path d="M34280 13720
L34680 13630
L34400 13550
L34680 13480
L34280 13380
" />
</g>
<g style="fill:#840000; fill-opacity:0.0; 
stroke:#840000; stroke-width:60; stroke-opacity:1; 
stroke-linecap:round; stroke-linejoin:round;">
<path d="M33980 15650
L33980 15840
L34170 15860
L34150 15840
L34130 15810
L34130 15710
L34150 15670
L34170 15650
L34210 15640
L34300 15640
L34340 15650
L34360 15670
L34380 15710
L34380 15810
L34360 15840
L34340 15860
" />
<path d="M35500 15000
L35500 16500
" />
</g>
<g style="fill:#008484; fill-opacity:0.0; 
stroke:#008484; stroke-width:60; stroke-opacity:1; 
stroke-linecap:round; stroke-linejoin:round;">
<path d="M35470 14500
L35470 14370
" />
<path d="M35680 14310
L35680 14500
L35280 14500
L35280 14310
" />
</g>
<g style="fill:#840000; fill-opacity:0.0; 
stroke:#840000; stroke-width:60; stroke-opacity:1; 
stroke-linecap:round; stroke-linejoin:round;">
<path d="M34980 15670
L34980 15750
L35000 15790
L35020 15810
L35080 15840
L35150 15860
L35300 15860
L35340 15840
L35360 15830
L35380 15790
L35380 15710
L35360 15670
L35340 15650
L35300 15640
L35210 15640
L35170 15650
L35150 15670
L35130 15710
L35130 15790
L35150 15830
L35170 15840
L35210 15860
" />
<path d="M36500 15000
L36500 16500
" />
</g>
<g style="fill:#008484; fill-opacity:0.0; 
stroke:#008484; stroke-width:60; stroke-opacity:1; 
stroke-linecap:round; stroke-linejoin:round;">
<path d="M36680 14500
L36280 14500
L36280 14410
L36300 14350
L36340 14310
L36380 14300
L36450 14280
L36510 14280
L36590 14300
L36620 14310
L36660 14350
L36680 14410
L36680 14500
" />
<path d="M36280 14030
L36280 13990
L36300 13950
L36320 13930
L36360 13910
L36430 13900
L36530 13900
L36600 13910
L36640 13930
L36660 13950
L36680 13990
L36680 14030
L36660 14070
L36640 14090
L36600 14100
L36530 14120
L36430 14120
L36360 14100
L36320 14090
L36300 14070
L36280 14030
" />
</g>
<g style="fill:#840000; fill-opacity:0.0; 
stroke:#840000; stroke-width:60; stroke-opacity:1; 
stroke-linecap:round; stroke-linejoin:round;">
<path d="M35980 15880
L35980 15620
L36380 15790
" />
<path d="M37500 15000
L37500 16500
" />
</g>
<g style="fill:#008484; fill-opacity:0.0; 
stroke:#008484; stroke-width:60; stroke-opacity:1; 
stroke-linecap:round; stroke-linejoin:round;">
<path d="M37680 14500
L37280 14500
L37280 14410
L37300 14350
L37340 14310
L37380 14300
L37450 14280
L37510 14280
L37590 14300
L37620 14310
L37660 14350
L37680 14410
L37680 14500
" />
<path d="M37680 13900
L37680 14120
" />
<path d="M37680 14010
L37280 14010
L37340 14050
L37380 14090
L37400 14120
" />
</g>
<g style="fill:#840000; fill-opacity:0.0; 
stroke:#840000; stroke-width:60; stroke-opacity:1; 
stroke-linecap:round; stroke-linejoin:round;">
<path d="M37150 15790
L37130 15830
L37110 15840
L37080 15860
L37060 15860
L37020 15840
L37000 15830
L36980 15790
L36980 15710
L37000 15670
L37020 15650
L37060 15640
L37080 15640
L37110 15650
L37130 15670
L37150 15710
L37150 15790
L37170 15830
L37190 15840
L37230 15860
L37300 15860
L37340 15840
L37360 15830
L37380 15790
L37380 15710
L37360 15670
L37340 15650
L37300 15640
L37230 15640
L37190 15650
L37170 15670
L37150 15710
" />
<path d="M38500 15000
L38500 16500
" />
</g>
<g style="fill:#008484; fill-opacity:0.0; 
stroke:#008484; stroke-width:60; stroke-opacity:1; 
stroke-linecap:round; stroke-linejoin:round;">
<path d="M38680 14500
L38280 14500
L38280 14410
L38300 14350
L38340 14310
L38380 14300
L38450 14280
L38510 14280
L38590 14300
L38620 14310
L38660 14350
L38680 14410
L38680 14500
" />
<path d="M38320 14120
L38300 14100
L38280 14070
L38280 13970
L38300 13930
L38320 13910
L38360 13900
L38400 13900
L38450 13910
L38680 14140
L38680 13900
" />
</g>
<g style="fill:#840000; fill-opacity:0.0; 
stroke:#840000; stroke-width:60; stroke-opacity:1; 
stroke-linecap:round; stroke-linejoin:round;">
<path d="M38380 15830
L38380 15750
L38360 15710
L38340 15690
L38290 15650
L38210 15640
L38060 15640
L38020 15650
L38000 15670
L37980 15710
L37980 15790
L38000 15830
L38020 15840
L38060 15860
L38150 15860
L38190 15840
L38210 15830
L38230 15790
L38230 15710
L38210 15670
L38190 15650
L38150 15640
" />
<path d="M39500 15000
L39500 16500
" />
</g>
<g style="fill:#008484; fill-opacity:0.0; 
stroke:#008484; stroke-width:60; stroke-opacity:1; 
stroke-linecap:round; stroke-linejoin:round;">
<path d="M39680 14500
L39280 14500
L39280 14410
L39300 14350
L39340 14310
L39380 14300
L39450 14280
L39510 14280
L39590 14300
L39620 14310
L39660 14350
L39680 14410
L39680 14500
" />
<path d="M39280 14140
L39280 13900
L39430 14030
L39430 13970
L39450 13930
L39470 13910
L39510 13900
L39600 13900
L39640 13910
L39660 13930
L39680 13970
L39680 14090
L39660 14120
L39640 14140
" />
</g>
<g style="fill:#840000; fill-opacity:0.0; 
stroke:#840000; stroke-width:60; stroke-opacity:1; 
stroke-linecap:round; stroke-linejoin:round;">
<path d="M39380 15830
L39380 16050
" />
<path d="M39380 15940
L38980 15940
L39040 15980
L39080 16020
L39100 16050
" />
<path d="M38980 15580
L38980 15540
L39000 15500
L39020 15480
L39060 15460
L39130 15450
L39230 15450
L39300 15460
L39340 15480
L39360 15500
L39380 15540
L39380 15580
L39360 15620
L39340 15640
L39300 15650
L39230 15670
L39130 15670
L39060 15650
L39020 15640
L39000 15620
L38980 15580
" />
<path d="M40500 15000
L40500 16500
" />
</g>
<g style="fill:#008484; fill-opacity:0.0; 
stroke:#008484; stroke-width:60; stroke-opacity:1; 
stroke-linecap:round; stroke-linejoin:round;">
<path d="M40680 14500
L40280 14500
L40280 14410
L40300 14350
L40340 14310
L40380 14300
L40450 14280
L40510 14280
L40590 14300
L40620 14310
L40660 14350
L40680 14410
L40680 14500
" />
<path d="M40410 13930
L40680 13930
" />
<path d="M40260 14030
L40550 14120
L40550 13880
" />
</g>
<g style="fill:#840000; fill-opacity:0.0; 
stroke:#840000; stroke-width:60; stroke-opacity:1; 
stroke-linecap:round; stroke-linejoin:round;">
<path d="M40380 15830
L40380 16050
" />
<path d="M40380 15940
L39980 15940
L40040 15980
L40080 16020
L40100 16050
" />
<path d="M40380 15450
L40380 15670
" />
<path d="M40380 15560
L39980 15560
L40040 15600
L40080 15640
L40100 15670
" />
<path d="M41500 15000
L41500 16500
" />
</g>
<g style="fill:#008484; fill-opacity:0.0; 
stroke:#008484; stroke-width:60; stroke-opacity:1; 
stroke-linecap:round; stroke-linejoin:round;">
<path d="M41680 14500
L41280 14500
L41280 14410
L41300 14350
L41340 14310
L41380 14300
L41450 14280
L41510 14280
L41590 14300
L41620 14310
L41660 14350
L41680 14410
L41680 14500
" />
<path d="M41280 13910
L41280 14100
L41470 14120
L41450 14100
L41430 14070
L41430 13970
L41450 13930
L41470 13910
L41510 13900
L41600 13900
L41640 13910
L41660 13930
L41680 13970
L41680 14070
L41660 14100
L41640 14120
" />
</g>
<g style="fill:#840000; fill-opacity:0.0; 
stroke:#840000; stroke-width:60; stroke-opacity:1; 
stroke-linecap:round; stroke-linejoin:round;">
<path d="M41380 15830
L41380 16050
" />
<path d="M41380 15940
L40980 15940
L41040 15980
L41080 16020
L41100 16050
" />
<path d="M41020 15670
L41000 15650
L40980 15620
L40980 15520
L41000 15480
L41020 15460
L41060 15450
L41100 15450
L41150 15460
L41380 15690
L41380 15450
" />
<path d="M42500 15000
L42500 16500
" />
</g>
<g style="fill:#008484; fill-opacity:0.0; 
stroke:#008484; stroke-width:60; stroke-opacity:1; 
stroke-linecap:round; stroke-linejoin:round;">
<path d="M42680 14500
L42280 14500
L42280 14410
L42300 14350
L42340 14310
L42380 14300
L42450 14280
L42510 14280
L42590 14300
L42620 14310
L42660 14350
L42680 14410
L42680 14500
" />
<path d="M42280 13930
L42280 14010
L42300 14050
L42320 14070
L42380 14100
L42450 14120
L42600 14120
L42640 14100
L42660 14090
L42680 14050
L42680 13970
L42660 13930
L42640 13910
L42600 13900
L42510 13900
L42470 13910
L42450 13930
L42430 13970
L42430 14050
L42450 14090
L42470 14100
L42510 14120
" />
</g>
<g style="fill:#840000; fill-opacity:0.0; 
stroke:#840000; stroke-width:60; stroke-opacity:1; 
stroke-linecap:round; stroke-linejoin:round;">
<path d="M42380 15830
L42380 16050
" />
<path d="M42380 15940
L41980 15940
L42040 15980
L42080 16020
L42100 16050
" />
<path d="M41980 15690
L41980 15450
L42130 15580
L42130 15520
L42150 15480
L42170 15460
L42210 15450
L42300 15450
L42340 15460
L42360 15480
L42380 15520
L42380 15640
L42360 15670
L42340 15690
" />
<path d="M43500 15000
L43500 16500
" />
</g>
<g style="fill:#008484; fill-opacity:0.0; 
stroke:#008484; stroke-width:60; stroke-opacity:1; 
stroke-linecap:round; stroke-linejoin:round;">
<path d="M43680 14500
L43280 14500
L43280 14410
L43300 14350
L43340 14310
L43380 14300
L43450 14280
L43510 14280
L43590 14300
L43620 14310
L43660 14350
L43680 14410
L43680 14500
" />
<path d="M43280 14140
L43280 13880
L43680 14050
" />
</g>
<g style="fill:#840000; fill-opacity:0.0; 
stroke:#840000; stroke-width:60; stroke-opacity:1; 
stroke-linecap:round; stroke-linejoin:round;">
<path d="M43380 15830
L43380 16050
" />
<path d="M43380 15940
L42980 15940
L43040 15980
L43080 16020
L43100 16050
" />
<path d="M43110 15480
L43380 15480
" />
<path d="M42960 15580
L43250 15670
L43250 15430
" />
<path d="M44500 15000
L44500 16500
" />
</g>
<g style="fill:#008484; fill-opacity:0.0; 
stroke:#008484; stroke-width:60; stroke-opacity:1; 
stroke-linecap:round; stroke-linejoin:round;">
<path d="M44680 14310
L44680 14500
L44280 14500
" />
<path d="M44470 14180
L44470 14050
" />
<path d="M44680 13990
L44680 14180
L44280 14180
L44280 13990
" />
<path d="M44680 13820
L44280 13820
L44280 13730
L44300 13670
L44340 13630
L44380 13620
L44450 13600
L44510 13600
L44590 13620
L44620 13630
L44660 13670
L44680 13730
L44680 13820
" />
<path d="M44530 13420
L44530 13120
" />
<path d="M44680 13270
L44380 13270
" />
</g>
<g style="fill:#840000; fill-opacity:0.0; 
stroke:#840000; stroke-width:60; stroke-opacity:1; 
stroke-linecap:round; stroke-linejoin:round;">
<path d="M44380 15830
L44380 16050
" />
<path d="M44380 15940
L43980 15940
L44040 15980
L44080 16020
L44100 16050
" />
<path d="M43980 15460
L43980 15650
L44170 15670
L44150 15650
L44130 15620
L44130 15520
L44150 15480
L44170 15460
L44210 15450
L44300 15450
L44340 15460
L44360 15480
L44380 15520
L44380 15620
L44360 15650
L44340 15670
" />
<path d="M45500 15000
L45500 16500
" />
</g>
<g style="fill:#008484; fill-opacity:0.0; 
stroke:#008484; stroke-width:60; stroke-opacity:1; 
stroke-linecap:round; stroke-linejoin:round;">
<path d="M45680 14310
L45680 14500
L45280 14500
" />
<path d="M45470 14180
L45470 14050
" />
<path d="M45680 13990
L45680 14180
L45280 14180
L45280 13990
" />
<path d="M45680 13820
L45280 13820
L45280 13730
L45300 13670
L45340 13630
L45380 13620
L45450 13600
L45510 13600
L45590 13620
L45620 13630
L45660 13670
L45680 13730
L45680 13820
" />
<path d="M45530 13420
L45530 13120
" />
</g>
<g style="fill:#840000; fill-opacity:0.0; 
stroke:#840000; stroke-width:60; stroke-opacity:1; 
stroke-linecap:round; stroke-linejoin:round;">
<path d="M45380 15830
L45380 16050
" />
<path d="M45380 15940
L44980 15940
L45040 15980
L45080 16020
L45100 16050
" />
<path d="M44980 15480
L44980 15560
L45000 15600
L45020 15620
L45080 15650
L45150 15670
L45300 15670
L45340 15650
L45360 15640
L45380 15600
L45380 15520
L45360 15480
L45340 15460
L45300 15450
L45210 15450
L45170 15460
L45150 15480
L45130 15520
L45130 15600
L45150 15640
L45170 15650
L45210 15670
" />
</g>
<g style="fill:#008484; fill-opacity:0.0; 
stroke:#008484; stroke-width:60; stroke-opacity:1; 
stroke-linecap:round; stroke-linejoin:round;">
<path d="M29520 7650
L29520 7250
L29610 7250
L29670 7270
L29710 7310
L29720 7350
L29740 7420
L29740 7480
L29720 7560
L29710 7590
L29670 7630
L29610 7650
L29520 7650
" />
<path d="M29900 7630
L29950 7650
L30050 7650
L30090 7630
L30110 7610
L30120 7570
L30120 7540
L30110 7500
L30090 7480
L30050 7460
L29970 7440
L29930 7420
L29920 7400
L29900 7370
L29900 7330
L29920 7290
L29930 7270
L29970 7250
L30070 7250
L30120 7270
" />
<path d="M30500 7650
L30280 7650
" />
<path d="M30390 7650
L30390 7250
L30350 7310
L30310 7350
L30280 7370
" />
<path d="M43970 7650
L43780 7650
L43780 7250
" />
<path d="M44320 7610
L44300 7630
L44250 7650
L44210 7650
L44150 7630
L44110 7590
L44100 7560
L44080 7480
L44080 7420
L44100 7350
L44110 7310
L44150 7270
L44210 7250
L44250 7250
L44300 7270
L44320 7290
" />
<path d="M44500 7650
L44500 7250
L44590 7250
L44650 7270
L44690 7310
L44700 7350
L44720 7420
L44720 7480
L44700 7560
L44690 7590
L44650 7630
L44590 7650
L44500 7650
" />
<path d="M44880 7290
L44900 7270
L44930 7250
L45030 7250
L45070 7270
L45090 7290
L45100 7330
L45100 7370
L45090 7420
L44860 7650
L45100 7650
" />
<path d="M45350 7250
L45390 7250
L45430 7270
L45450 7290
L45470 7330
L45480 7400
L45480 7500
L45470 7570
L45450 7610
L45430 7630
L45390 7650
L45350 7650
L45310 7630
L45290 7610
L45280 7570
L45260 7500
L45260 7400
L45280 7330
L45290 7290
L45310 7270
L45350 7250
" />
<path d="M45620 7250
L45880 7650
" />
<path d="M45880 7250
L45620 7650
" />
<path d="M46210 7380
L46210 7650
" />
<path d="M46110 7230
L46020 7520
L46260 7520
" />
</g>
<g style="fill:#840084; fill-opacity:0.0; 
stroke:#840084; stroke-width:60; stroke-opacity:1; 
stroke-linecap:round; stroke-linejoin:round;">
<path d="M36700 12120
L36750 11770
L36840 12020
L36990 11770
L36940 12120
" />
<path d="M37100 11770
L37300 11770
" />
<path d="M37150 12120
L37200 11770
" />
<path d="M37390 11990
L37660 11990
" />
<path d="M37830 11810
L37840 11790
L37890 11770
L37970 11770
L37990 11790
L38010 11810
L38030 11840
L38020 11870
L38000 11920
L37770 12120
L37990 12120
" />
<path d="M38250 11770
L38280 11770
L38310 11790
L38320 11810
L38340 11840
L38350 11910
L38340 11990
L38310 12060
L38290 12090
L38270 12110
L38230 12120
L38200 12120
L38170 12110
L38160 12090
L38140 12060
L38140 11990
L38150 11910
L38170 11840
L38190 11810
L38210 11790
L38250 11770
" />
<path d="M38450 12110
L38500 12120
L38580 12120
L38610 12110
L38640 12090
L38660 12060
L38670 12020
L38650 11990
L38630 11970
L38600 11960
L38540 11940
L38510 11920
L38490 11910
L38480 11870
L38490 11840
L38500 11810
L38520 11790
L38560 11770
L38650 11770
L38690 11790
" />
<path d="M38970 11890
L38940 12120
" />
<path d="M38910 11760
L38800 12010
L39010 12010
" />
<path d="M39130 12020
L39290 12020
" />
<path d="M39070 12120
L39240 11770
L39310 12120
" />
</g>
<g style="fill:#008400; fill-opacity:0.0; 
stroke:#008400; stroke-width:60; stroke-opacity:1; 
stroke-linecap:round; stroke-linejoin:round;">
<path d="M43500 21500
L43500 16500
" />
<path d="M42500 16500
L42500 21500
" />
<path d="M41500 21500
L41500 16500
" />
<path d="M40500 21500
L40500 16500
" />
<path d="M38500 19000
L38500 21500
" />
<path d="M36500 21500
L36500 21000
" />
<path d="M36500 21000
L33500 21000
" />
<path d="M33500 21000
L33500 16500
" />
<path d="M34500 16500
L34500 20000
" />
<path d="M34500 20000
L37500 20000
" />
<path d="M37500 20000
L37500 21500
" />
<path d="M38500 19000
L35500 19000
" />
<path d="M35500 19000
L35500 16500
" />
</g>
<g style="fill:#008400; fill-opacity:0.0; 
stroke:#008400; stroke-width:0; stroke-opacity:1; 
stroke-linecap:round; stroke-linejoin:round;">
</g>
<g style="fill:#840000; fill-opacity:0.0; 
stroke:#840000; stroke-width:0; stroke-opacity:1; 
stroke-linecap:round; stroke-linejoin:round;">
</g>
<g style="fill:#840000; fill-opacity:0.0; 
stroke:#840000; stroke-width:60; stroke-opacity:1; 
stroke-linecap:round; stroke-linejoin:round;">
<polyline fill="none;"
points="39500,35000
39500,35500
40000,35500
39500,36000
39000,35500
39500,35500
" /> 
</g>
<g style="fill:#008484; fill-opacity:0.0; 
stroke:#008484; stroke-width:60; stroke-opacity:1; 
stroke-linecap:round; stroke-linejoin:round;">
<path d="M39120 36220
L39070 36200
L39000 36200
L38930 36220
L38880 36270
L38860 36320
L38840 36410
L38840 36480
L38860 36580
L38880 36620
L38930 36670
L39000 36700
L39050 36700
L39120 36670
L39140 36650
L39140 36480
L39050 36480
" />
<path d="M39360 36700
L39360 36200
L39640 36700
L39640 36200
" />
<path d="M39880 36700
L39880 36200
L40000 36200
L40070 36220
L40120 36270
L40140 36320
L40160 36410
L40160 36480
L40140 36580
L40120 36620
L40070 36670
L40000 36700
L39880 36700
" />
</g>
<g style="fill:#008400; fill-opacity:0.0; 
stroke:#008400; stroke-width:60; stroke-opacity:1; 
stroke-linecap:round; stroke-linejoin:round;">
<path d="M47500 26500
L48500 26500
" />
<path d="M48500 22000
L48500 33500
" />
<path d="M39500 31500
L39500 35000
" />
</g>
<g style="fill:#008400; fill-opacity:0.0; 
stroke:#008400; stroke-width:0; stroke-opacity:1; 
stroke-linecap:round; stroke-linejoin:round;">
</g>
<g style="fill:#008400; fill-opacity:1.0; 
stroke:#008400; stroke-width:100; stroke-opacity:1; 
stroke-linecap:round; stroke-linejoin:round;">
<circle cx="39500" cy="33500" r="200" /> 
</g>
<g style="fill:#008400; fill-opacity:1.0; 
stroke:#008400; stroke-width:60; stroke-opacity:1; 
stroke-linecap:round; stroke-linejoin:round;">
</g>
<g style="fill:#008400; fill-opacity:0.0; 
stroke:#008400; stroke-width:60; stroke-opacity:1; 
stroke-linecap:round; stroke-linejoin:round;">
<path d="M40500 33500
L40500 31500
" />
</g>
<g style="fill:#008400; fill-opacity:0.0; 
stroke:#008400; stroke-width:0; stroke-opacity:1; 
stroke-linecap:round; stroke-linejoin:round;">
</g>
<g style="fill:#008400; fill-opacity:1.0; 
stroke:#008400; stroke-width:100; stroke-opacity:1; 
stroke-linecap:round; stroke-linejoin:round;">
<circle cx="40500" cy="33500" r="200" /> 
</g>
<g style="fill:#008400; fill-opacity:1.0; 
stroke:#008400; stroke-width:60; stroke-opacity:1; 
stroke-linecap:round; stroke-linejoin:round;">
</g>
<g style="fill:#008400; fill-opacity:0.0; 
stroke:#008400; stroke-width:60; stroke-opacity:1; 
stroke-linecap:round; stroke-linejoin:round;">
<path d="M41500 33500
L41500 31500
" />
</g>
<g style="fill:#008400; fill-opacity:0.0; 
stroke:#008400; stroke-width:0; stroke-opacity:1; 
stroke-linecap:round; stroke-linejoin:round;">
</g>
<g style="fill:#008400; fill-opacity:1.0; 
stroke:#008400; stroke-width:100; stroke-opacity:1; 
stroke-linecap:round; stroke-linejoin:round;">
<circle cx="41500" cy="33500" r="200" /> 
</g>
<g style="fill:#008400; fill-opacity:1.0; 
stroke:#008400; stroke-width:60; stroke-opacity:1; 
stroke-linecap:round; stroke-linejoin:round;">
</g>
<g style="fill:#000084; fill-opacity:1.0; 
stroke:#000084; stroke-width:60; stroke-opacity:1; 
stroke-linecap:round; stroke-linejoin:round;">
</g>
<g style="fill:#000084; fill-opacity:0.0; 
stroke:#000084; stroke-width:60; stroke-opacity:1; 
stroke-linecap:round; stroke-linejoin:round;">
<path d="M44260 31260
L44740 31740
" />
<path d="M44740 31260
L44260 31740
" />
<path d="M36260 16260
L36740 16740
" />
<path d="M36740 16260
L36260 16740
" />
<path d="M37260 16260
L37740 16740
" />
<path d="M37740 16260
L37260 16740
" />
<path d="M38260 16260
L38740 16740
" />
<path d="M38740 16260
L38260 16740
" />
<path d="M39260 16260
L39740 16740
" />
<path d="M39740 16260
L39260 16740
" />
</g>
<g style="fill:#008400; fill-opacity:0.0; 
stroke:#008400; stroke-width:60; stroke-opacity:1; 
stroke-linecap:round; stroke-linejoin:round;">
<path d="M30500 16500
L30500 33500
" />
<path d="M32500 21000
L32500 16500
" />
<path d="M30500 21000
L32500 21000
" />
</g>
<g style="fill:#008400; fill-opacity:0.0; 
stroke:#008400; stroke-width:0; stroke-opacity:1; 
stroke-linecap:round; stroke-linejoin:round;">
</g>
<g style="fill:#008400; fill-opacity:1.0; 
stroke:#008400; stroke-width:100; stroke-opacity:1; 
stroke-linecap:round; stroke-linejoin:round;">
<circle cx="30500" cy="21000" r="200" /> 
</g>
<g style="fill:#008400; fill-opacity:1.0; 
stroke:#008400; stroke-width:60; stroke-opacity:1; 
stroke-linecap:round; stroke-linejoin:round;">
</g>
<g style="fill:#008400; fill-opacity:0.0; 
stroke:#008400; stroke-width:60; stroke-opacity:1; 
stroke-linecap:round; stroke-linejoin:round;">
<path d="M18500 23000
L21500 23000
" />
<path d="M18500 23000
L18500 35500
" />
<path d="M18500 35500
L36500 35500
" />
<path d="M36500 35500
L36500 31500
" />
<path d="M21500 22000
L17500 22000
" />
<path d="M17500 22000
L17500 36500
" />
<path d="M17500 36500
L37500 36500
" />
<path d="M37500 36500
L37500 31500
" />
<path d="M21500 29000
L19500 29000
" />
<path d="M19500 29000
L19500 34500
" />
<path d="M19500 34500
L32500 34500
" />
<path d="M32500 34500
L32500 26500
" />
<path d="M32500 26500
L33500 26500
" />
</g>
<g style="fill:#000000; fill-opacity:0.0; 
stroke:#000000; stroke-width:60; stroke-opacity:1; 
stroke-linecap:round; stroke-linejoin:round;">
<path d="M19590 28270
L19960 28270
L19760 28500
L19840 28500
L19900 28530
L19930 28560
L19960 28610
L19960 28760
L19930 28810
L19900 28840
L19840 28870
L19670 28870
L19610 28840
L19590 28810
" />
<path d="M20210 28810
L20240 28840
L20210 28870
L20180 28840
L20210 28810
L20210 28870
" />
<path d="M20450 28270
L20820 28270
L20620 28500
L20700 28500
L20760 28530
L20790 28560
L20820 28610
L20820 28760
L20790 28810
L20760 28840
L20700 28870
L20530 28870
L20470 28840
L20450 28810
" />
<path d="M21020 28470
L21160 28870
L21300 28470
" />
<path d="M19610 21840
L19700 21870
L19840 21870
L19900 21840
L19930 21810
L19960 21760
L19960 21700
L19930 21640
L19900 21610
L19840 21590
L19730 21560
L19670 21530
L19640 21500
L19610 21440
L19610 21390
L19640 21330
L19670 21300
L19730 21270
L19870 21270
L19960 21300
" />
<path d="M20210 21870
L20210 21270
L20360 21270
L20440 21300
L20500 21360
L20530 21410
L20560 21530
L20560 21610
L20530 21730
L20500 21790
L20440 21840
L20360 21870
L20210 21870
" />
<path d="M20780 21700
L21070 21700
" />
<path d="M20730 21870
L20930 21270
L21130 21870
" />
</g>
<g style="fill:#008400; fill-opacity:0.0; 
stroke:#008400; stroke-width:60; stroke-opacity:1; 
stroke-linecap:round; stroke-linejoin:round;">
<path d="M26500 21000
L28500 21000
" />
<path d="M28500 21000
L28500 18000
" />
<path d="M28500 18000
L44500 18000
" />
<path d="M31500 16500
L31500 18000
" />
<path d="M44500 18000
L44500 16500
" />
</g>
<g style="fill:#008400; fill-opacity:0.0; 
stroke:#008400; stroke-width:0; stroke-opacity:1; 
stroke-linecap:round; stroke-linejoin:round;">
</g>
<g style="fill:#008400; fill-opacity:1.0; 
stroke:#008400; stroke-width:100; stroke-opacity:1; 
stroke-linecap:round; stroke-linejoin:round;">
<circle cx="31500" cy="18000" r="200" /> 
</g>
<g style="fill:#008400; fill-opacity:1.0; 
stroke:#008400; stroke-width:60; stroke-opacity:1; 
stroke-linecap:round; stroke-linejoin:round;">
</g>
<g style="fill:#008400; fill-opacity:0.0; 
stroke:#008400; stroke-width:60; stroke-opacity:1; 
stroke-linecap:round; stroke-linejoin:round;">
<path d="M45500 16500
L45500 18000
" />
<path d="M45500 18000
L48500 18000
" />
</g>
<g style="fill:#008400; fill-opacity:0.0; 
stroke:#008400; stroke-width:0; stroke-opacity:1; 
stroke-linecap:round; stroke-linejoin:round;">
</g>
<g style="fill:#008400; fill-opacity:1.0; 
stroke:#008400; stroke-width:100; stroke-opacity:1; 
stroke-linecap:round; stroke-linejoin:round;">
<circle cx="48500" cy="26500" r="200" /> 
</g>
<g style="fill:#008400; fill-opacity:1.0; 
stroke:#008400; stroke-width:60; stroke-opacity:1; 
stroke-linecap:round; stroke-linejoin:round;">
</g>
<g style="fill:#008400; fill-opacity:0.0; 
stroke:#008400; stroke-width:60; stroke-opacity:1; 
stroke-linecap:round; stroke-linejoin:round;">
<path d="M26500 23000
L30500 23000
" />
<path d="M26500 30000
L30500 30000
" />
</g>
<g style="fill:#000000; fill-opacity:0.0; 
stroke:#000000; stroke-width:60; stroke-opacity:1; 
stroke-linecap:round; stroke-linejoin:round;">
<path d="M27430 20270
L27140 20270
L27110 20560
L27140 20530
L27200 20500
L27340 20500
L27400 20530
L27430 20560
L27460 20610
L27460 20760
L27430 20810
L27400 20840
L27340 20870
L27200 20870
L27140 20840
L27110 20810
" />
<path d="M27660 20470
L27800 20870
L27940 20470
" />
<path d="M27460 22300
L27400 22270
L27310 22270
L27230 22300
L27170 22360
L27140 22410
L27110 22530
L27110 22610
L27140 22730
L27170 22790
L27230 22840
L27310 22870
L27370 22870
L27460 22840
L27490 22810
L27490 22610
L27370 22610
" />
<path d="M27740 22870
L27740 22270
L28090 22870
L28090 22270
" />
<path d="M28370 22870
L28370 22270
L28520 22270
L28600 22300
L28660 22360
L28690 22410
L28720 22530
L28720 22610
L28690 22730
L28660 22790
L28600 22840
L28520 22870
L28370 22870
" />
<path d="M27460 29300
L27400 29270
L27310 29270
L27230 29300
L27170 29360
L27140 29410
L27110 29530
L27110 29610
L27140 29730
L27170 29790
L27230 29840
L27310 29870
L27370 29870
L27460 29840
L27490 29810
L27490 29610
L27370 29610
" />
<path d="M27740 29870
L27740 29270
L28090 29870
L28090 29270
" />
<path d="M28370 29870
L28370 29270
L28520 29270
L28600 29300
L28660 29360
L28690 29410
L28720 29530
L28720 29610
L28690 29730
L28660 29790
L28600 29840
L28520 29870
L28370 29870
" />
</g>
<g style="fill:#000000; fill-opacity:0.0; 
stroke:#000000; stroke-width:0; stroke-opacity:1; 
stroke-linecap:round; stroke-linejoin:round;">
</g>
<g style="fill:#840000; fill-opacity:0.0; 
stroke:#840000; stroke-width:0; stroke-opacity:1; 
stroke-linecap:round; stroke-linejoin:round;">
</g>
<g style="fill:#840000; fill-opacity:0.0; 
stroke:#840000; stroke-width:200; stroke-opacity:1; 
stroke-linecap:round; stroke-linejoin:round;">
<polyline fill="none;"
points="33200,31800
34800,31800
" /> 
<polyline fill="none;"
points="33200,31200
34800,31200
" /> 
</g>
<g style="fill:#840000; fill-opacity:0.0; 
stroke:#840000; stroke-width:60; stroke-opacity:1; 
stroke-linecap:round; stroke-linejoin:round;">
<path d="M34000 31100
L34000 30000
" />
<path d="M34000 31900
L34000 33000
" />
</g>
<g style="fill:#008484; fill-opacity:0.0; 
stroke:#008484; stroke-width:60; stroke-opacity:1; 
stroke-linecap:round; stroke-linejoin:round;">
<path d="M34650 30650
L34630 30670
L34560 30700
L34510 30700
L34440 30670
L34390 30620
L34370 30580
L34350 30480
L34350 30410
L34370 30320
L34390 30270
L34440 30220
L34510 30200
L34560 30200
L34630 30220
L34650 30240
" />
<path d="M35130 30700
L34850 30700
" />
<path d="M34990 30700
L34990 30200
L34940 30270
L34890 30320
L34850 30340
" />
<path d="M34460 32200
L34510 32200
L34560 32220
L34580 32240
L34610 32290
L34630 32390
L34630 32510
L34610 32600
L34580 32650
L34560 32670
L34510 32700
L34460 32700
L34420 32670
L34390 32650
L34370 32600
L34350 32510
L34350 32390
L34370 32290
L34390 32240
L34420 32220
L34460 32200
" />
<path d="M34850 32650
L34870 32670
L34850 32700
L34830 32670
L34850 32650
L34850 32700
" />
<path d="M35350 32700
L35070 32700
" />
<path d="M35210 32700
L35210 32200
L35160 32270
L35110 32320
L35070 32340
" />
<path d="M35780 32360
L35780 32700
" />
<path d="M35570 32360
L35570 32620
L35590 32670
L35640 32700
L35710 32700
L35760 32670
L35780 32650
" />
<path d="M36190 32430
L36020 32430
" />
<path d="M36020 32700
L36020 32200
L36260 32200
" />
</g>
<g style="fill:#008400; fill-opacity:0.0; 
stroke:#008400; stroke-width:60; stroke-opacity:1; 
stroke-linecap:round; stroke-linejoin:round;">
<path d="M34000 30000
L32500 30000
" />
</g>
<g style="fill:#008400; fill-opacity:0.0; 
stroke:#008400; stroke-width:0; stroke-opacity:1; 
stroke-linecap:round; stroke-linejoin:round;">
</g>
<g style="fill:#008400; fill-opacity:1.0; 
stroke:#008400; stroke-width:100; stroke-opacity:1; 
stroke-linecap:round; stroke-linejoin:round;">
<circle cx="32500" cy="30000" r="200" /> 
</g>
<g style="fill:#008400; fill-opacity:1.0; 
stroke:#008400; stroke-width:60; stroke-opacity:1; 
stroke-linecap:round; stroke-linejoin:round;">
</g>
<g style="fill:#008400; fill-opacity:0.0; 
stroke:#008400; stroke-width:60; stroke-opacity:1; 
stroke-linecap:round; stroke-linejoin:round;">
<path d="M34000 33000
L34000 33500
" />
</g>
<g style="fill:#008400; fill-opacity:0.0; 
stroke:#008400; stroke-width:0; stroke-opacity:1; 
stroke-linecap:round; stroke-linejoin:round;">
</g>
<g style="fill:#008400; fill-opacity:1.0; 
stroke:#008400; stroke-width:100; stroke-opacity:1; 
stroke-linecap:round; stroke-linejoin:round;">
<circle cx="34000" cy="33500" r="200" /> 
</g>
<g style="fill:#008400; fill-opacity:1.0; 
stroke:#008400; stroke-width:60; stroke-opacity:1; 
stroke-linecap:round; stroke-linejoin:round;">
</g>
<g style="fill:#000084; fill-opacity:1.0; 
stroke:#000084; stroke-width:60; stroke-opacity:1; 
stroke-linecap:round; stroke-linejoin:round;">
</g>
<g style="fill:#000084; fill-opacity:0.0; 
stroke:#000084; stroke-width:60; stroke-opacity:1; 
stroke-linecap:round; stroke-linejoin:round;">
<path d="M21260 20760
L21740 21240
" />
<path d="M21740 20760
L21260 21240
" />
<path d="M26260 21760
L26740 22240
" />
<path d="M26740 21760
L26260 22240
" />
<path d="M21260 23760
L21740 24240
" />
<path d="M21740 23760
L21260 24240
" />
<path d="M21260 24760
L21740 25240
" />
<path d="M21740 24760
L21260 25240
" />
<path d="M21260 25760
L21740 26240
" />
<path d="M21740 25760
L21260 26240
" />
<path d="M21260 26760
L21740 27240
" />
<path d="M21740 26760
L21260 27240
" />
<path d="M21260 27760
L21740 28240
" />
<path d="M21740 27760
L21260 28240
" />
<path d="M21260 29760
L21740 30240
" />
<path d="M21740 29760
L21260 30240
" />
<path d="M21260 30760
L21740 31240
" />
<path d="M21740 30760
L21260 31240
" />
<path d="M21260 31760
L21740 32240
" />
<path d="M21740 31760
L21260 32240
" />
<path d="M21260 32760
L21740 33240
" />
<path d="M21740 32760
L21260 33240
" />
<path d="M26260 32760
L26740 33240
" />
<path d="M26740 32760
L26260 33240
" />
<path d="M26260 31760
L26740 32240
" />
<path d="M26740 31760
L26260 32240
" />
<path d="M26260 30760
L26740 31240
" />
<path d="M26740 30760
L26260 31240
" />
<path d="M26260 28760
L26740 29240
" />
<path d="M26740 28760
L26260 29240
" />
<path d="M26260 27760
L26740 28240
" />
<path d="M26740 27760
L26260 28240
" />
<path d="M26260 26760
L26740 27240
" />
<path d="M26740 26760
L26260 27240
" />
<path d="M26260 25760
L26740 26240
" />
<path d="M26740 25760
L26260 26240
" />
<path d="M26260 24760
L26740 25240
" />
<path d="M26740 24760
L26260 25240
" />
<path d="M26260 23760
L26740 24240
" />
<path d="M26740 23760
L26260 24240
" />
</g>
<g style="fill:#000084; fill-opacity:0.0; 
stroke:#000084; stroke-width:0; stroke-opacity:1; 
stroke-linecap:round; stroke-linejoin:round;">
</g>
<g style="fill:#008400; fill-opacity:0.0; 
stroke:#008400; stroke-width:0; stroke-opacity:1; 
stroke-linecap:round; stroke-linejoin:round;">
</g>
<g style="fill:#008400; fill-opacity:1.0; 
stroke:#008400; stroke-width:100; stroke-opacity:1; 
stroke-linecap:round; stroke-linejoin:round;">
<circle cx="30500" cy="23000" r="200" /> 
</g>
<g style="fill:#008400; fill-opacity:1.0; 
stroke:#008400; stroke-width:60; stroke-opacity:1; 
stroke-linecap:round; stroke-linejoin:round;">
</g>
<g style="fill:#008400; fill-opacity:0.0; 
stroke:#008400; stroke-width:60; stroke-opacity:1; 
stroke-linecap:round; stroke-linejoin:round;">
<path d="M30500 33500
L48500 33500
" />
</g>
<g style="fill:#008400; fill-opacity:0.0; 
stroke:#008400; stroke-width:0; stroke-opacity:1; 
stroke-linecap:round; stroke-linejoin:round;">
</g>
<g style="fill:#008400; fill-opacity:1.0; 
stroke:#008400; stroke-width:100; stroke-opacity:1; 
stroke-linecap:round; stroke-linejoin:round;">
<circle cx="30500" cy="30000" r="200" /> 
</g>
<g style="fill:#008400; fill-opacity:1.0; 
stroke:#008400; stroke-width:60; stroke-opacity:1; 
stroke-linecap:round; stroke-linejoin:round;">
</g>
<g style="fill:#000000; fill-opacity:0.0; 
stroke:#000000; stroke-width:60; stroke-opacity:1; 
stroke-linecap:round; stroke-linejoin:round;">
<path d="M19610 23840
L19700 23870
L19840 23870
L19900 23840
L19930 23810
L19960 23760
L19960 23700
L19930 23640
L19900 23610
L19840 23590
L19730 23560
L19670 23530
L19640 23500
L19610 23440
L19610 23390
L19640 23330
L19670 23300
L19730 23270
L19870 23270
L19960 23300
" />
<path d="M20560 23810
L20530 23840
L20440 23870
L20380 23870
L20300 23840
L20240 23790
L20210 23730
L20180 23610
L20180 23530
L20210 23410
L20240 23360
L20300 23300
L20380 23270
L20440 23270
L20530 23300
L20560 23330
" />
<path d="M21100 23870
L20810 23870
L20810 23270
" />
</g>
<g style="fill:#000000; fill-opacity:0.0; 
stroke:#000000; stroke-width:0; stroke-opacity:1; 
stroke-linecap:round; stroke-linejoin:round;">
</g>
<g style="fill:#840000; fill-opacity:0.0; 
stroke:#840000; stroke-width:0; stroke-opacity:1; 
stroke-linecap:round; stroke-linejoin:round;">
</g>
<g style="fill:#840000; fill-opacity:0.0; 
stroke:#840000; stroke-width:100; stroke-opacity:1; 
stroke-linecap:round; stroke-linejoin:round;">
<circle cx="48000" cy="20000" r="1110" /> 
</g>
<g style="fill:#840000; fill-opacity:0.0; 
stroke:#840000; stroke-width:60; stroke-opacity:1; 
stroke-linecap:round; stroke-linejoin:round;">
<circle cx="48500" cy="20500" r="50" /> 
<circle cx="48500" cy="19500" r="50" /> 
</g>
<g style="fill:#840000; fill-opacity:0.0; 
stroke:#840000; stroke-width:200; stroke-opacity:1; 
stroke-linecap:round; stroke-linejoin:round;">
<polyline fill="none;"
points="47750,20400
47750,20650
" /> 
<polyline fill="none;"
points="47750,19850
47750,20150
" /> 
<polyline fill="none;"
points="47750,19350
47750,19600
" /> 
</g>
<g style="fill:#840000; fill-opacity:0.0; 
stroke:#840000; stroke-width:60; stroke-opacity:1; 
stroke-linecap:round; stroke-linejoin:round;">
<polyline fill="none;"
points="48700,19850
48650,19900
" /> 
<polyline fill="none;"
points="48700,19850
48900,19850
" /> 
<polyline fill="none;"
points="48900,19850
48950,19800
" /> 
</g>
<g style="fill:#840000; fill-opacity:0.0; 
stroke:#840000; stroke-width:100; stroke-opacity:1; 
stroke-linecap:round; stroke-linejoin:round;">
<polyline fill="none;"
points="47500,19400
47500,20600
47500,20600
" /> 
</g>
<g style="fill:#840000; fill-opacity:0.0; 
stroke:#840000; stroke-width:60; stroke-opacity:1; 
stroke-linecap:round; stroke-linejoin:round;">
<polyline fill="none;"
points="47800,20500
48500,20500
48500,21000
48500,21000
" /> 
<polyline fill="none;"
points="47800,19500
48500,19500
48500,19000
48500,19000
" /> 
<polyline fill="none;"
points="48500,19500
48800,19500
48800,20500
48500,20500
" /> 
</g>
<g style="fill:#840000; fill-opacity:1.0; 
stroke:#840000; stroke-width:60; stroke-opacity:1; 
stroke-linecap:round; stroke-linejoin:round;">
<polyline style="fill-rule:evenodd;"
points="48800,19850
48700,20100
48900,20100
48800,19850
" /> 
</g>
<g style="fill:#840000; fill-opacity:0.0; 
stroke:#840000; stroke-width:60; stroke-opacity:1; 
stroke-linecap:round; stroke-linejoin:round;">
<polyline fill="none;"
points="47800,20000
48000,20000
48500,20000
48500,20500
48500,20500
" /> 
</g>
<g style="fill:#840000; fill-opacity:1.0; 
stroke:#840000; stroke-width:60; stroke-opacity:1; 
stroke-linecap:round; stroke-linejoin:round;">
<polyline style="fill-rule:evenodd;"
points="47850,20000
48250,19850
48250,20150
47850,20000
47900,20000
47900,20000
" /> 
</g>
<g style="fill:#840000; fill-opacity:0.0; 
stroke:#840000; stroke-width:60; stroke-opacity:1; 
stroke-linecap:round; stroke-linejoin:round;">
<path d="M48500 19000
L48500 18000
" />
</g>
<g style="fill:#008484; fill-opacity:0.0; 
stroke:#008484; stroke-width:60; stroke-opacity:1; 
stroke-linecap:round; stroke-linejoin:round;">
<path d="M48380 18630
L47880 18630
L47880 18510
L47900 18440
L47950 18390
L48000 18370
L48090 18350
L48160 18350
L48260 18370
L48300 18390
L48350 18440
L48380 18510
L48380 18630
" />
</g>
<g style="fill:#840000; fill-opacity:0.0; 
stroke:#840000; stroke-width:60; stroke-opacity:1; 
stroke-linecap:round; stroke-linejoin:round;">
<path d="M49080 18360
L49080 18640
" />
<path d="M49080 18500
L48580 18500
L48650 18550
L48700 18600
L48720 18640
" />
<path d="M47500 20500
L45500 20500
" />
</g>
<g style="fill:#008484; fill-opacity:0.0; 
stroke:#008484; stroke-width:60; stroke-opacity:1; 
stroke-linecap:round; stroke-linejoin:round;">
<path d="M46630 19900
L46580 19880
L46510 19880
L46440 19900
L46390 19950
L46370 20000
L46350 20090
L46350 20160
L46370 20260
L46390 20300
L46440 20350
L46510 20380
L46560 20380
L46630 20350
L46650 20330
L46650 20160
L46560 20160
" />
</g>
<g style="fill:#840000; fill-opacity:0.0; 
stroke:#840000; stroke-width:60; stroke-opacity:1; 
stroke-linecap:round; stroke-linejoin:round;">
<path d="M46360 20620
L46380 20600
L46430 20580
L46550 20580
L46590 20600
L46620 20620
L46640 20670
L46640 20720
L46620 20790
L46330 21080
L46640 21080
" />
<path d="M48500 21000
L48500 22000
" />
</g>
<g style="fill:#008484; fill-opacity:0.0; 
stroke:#008484; stroke-width:60; stroke-opacity:1; 
stroke-linecap:round; stroke-linejoin:round;">
<path d="M48350 21640
L48380 21570
L48380 21450
L48350 21410
L48330 21380
L48280 21360
L48230 21360
L48190 21380
L48160 21410
L48140 21450
L48110 21550
L48090 21600
L48070 21620
L48020 21640
L47970 21640
L47920 21620
L47900 21600
L47880 21550
L47880 21430
L47900 21360
" />
</g>
<g style="fill:#840000; fill-opacity:0.0; 
stroke:#840000; stroke-width:60; stroke-opacity:1; 
stroke-linecap:round; stroke-linejoin:round;">
<path d="M48580 21670
L48580 21360
L48770 21530
L48770 21450
L48790 21410
L48810 21380
L48860 21360
L48980 21360
L49030 21380
L49050 21410
L49080 21450
L49080 21600
L49050 21640
L49030 21670
" />
</g>
<g style="fill:#008484; fill-opacity:0.0; 
stroke:#008484; stroke-width:60; stroke-opacity:1; 
stroke-linecap:round; stroke-linejoin:round;">
<path d="M49950 19490
L49900 19470
L49860 19420
L49790 19350
L49740 19330
L49690 19330
" />
<path d="M49710 19450
L49670 19420
L49620 19370
L49600 19280
L49600 19110
L49620 19020
L49670 18970
L49710 18950
L49810 18950
L49860 18970
L49900 19020
L49930 19110
L49930 19280
L49900 19370
L49860 19420
L49810 19450
L49710 19450
" />
<path d="M50400 19450
L50120 19450
" />
<path d="M50260 19450
L50260 18950
L50210 19020
L50160 19070
L50120 19090
" />
<path d="M49790 19930
L49860 19960
L49880 19980
L49900 20030
L49900 20100
L49880 20150
L49860 20170
L49810 20200
L49620 20200
L49620 19700
L49790 19700
L49830 19720
L49860 19740
L49880 19790
L49880 19840
L49860 19890
L49830 19910
L49790 19930
L49620 19930
" />
<path d="M50100 20170
L50170 20200
L50290 20200
L50330 20170
L50360 20150
L50380 20100
L50380 20050
L50360 20010
L50330 19980
L50290 19960
L50190 19930
L50140 19910
L50120 19890
L50100 19840
L50100 19790
L50120 19740
L50140 19720
L50190 19700
L50310 19700
L50380 19720
" />
<path d="M50860 20200
L50580 20200
" />
<path d="M50720 20200
L50720 19700
L50670 19770
L50620 19820
L50580 19840
" />
<path d="M51030 19700
L51360 19700
L51150 20200
" />
<path d="M51650 19700
L51700 19700
L51750 19720
L51770 19740
L51800 19790
L51820 19890
L51820 20010
L51800 20100
L51770 20150
L51750 20170
L51700 20200
L51650 20200
L51610 20170
L51580 20150
L51560 20100
L51540 20010
L51540 19890
L51560 19790
L51580 19740
L51610 19720
L51650 19700
" />
</g>
<g style="fill:#840084; fill-opacity:0.0; 
stroke:#840084; stroke-width:60; stroke-opacity:1; 
stroke-linecap:round; stroke-linejoin:round;">
<path d="M49620 20450
L49900 20450
" />
<path d="M49690 20950
L49760 20450
" />
<path d="M50160 20450
L50260 20450
L50300 20470
L50340 20520
L50360 20610
L50330 20780
L50290 20870
L50250 20920
L50190 20950
L50090 20950
L50060 20920
L50010 20870
L50000 20780
L50030 20610
L50060 20520
L50110 20470
L50160 20450
" />
<path d="M50550 20760
L50930 20760
" />
<path d="M51160 20950
L51260 20950
L51320 20920
L51340 20900
L51400 20830
L51430 20730
L51450 20540
L51440 20490
L51410 20470
L51380 20450
L51280 20450
L51220 20470
L51200 20490
L51170 20540
L51160 20660
L51170 20710
L51190 20730
L51240 20760
L51340 20760
L51380 20730
L51410 20710
L51440 20660
" />
<path d="M51660 20490
L51680 20470
L51740 20450
L51860 20450
L51890 20470
L51920 20490
L51930 20540
L51930 20590
L51900 20660
L51570 20950
L51880 20950
" />
</g>
<g style="fill:#008400; fill-opacity:0.0; 
stroke:#008400; stroke-width:60; stroke-opacity:1; 
stroke-linecap:round; stroke-linejoin:round;">
<path d="M45500 20500
L39500 20500
" />
<path d="M39500 20500
L39500 21500
" />
</g> 
</svg>
